{
  "asset": {
    "version": "2.0",
    "generator": "THREE.GLTFExporter"
  },
  "scenes": [
    {
      "nodes": [
        0
      ]
    }
  ],
  "scene": 0,
  "nodes": [
    {
      "children": [
        5,
        6,
        7,
        8,
        9,
        10
      ],
      "matrix": [
        0.01,
        0,
        0,
        0,
        0,
        0.01,
        0,
        0,
        0,
        0,
        0.01,
        0,
        0,
        0,
        0,
        1
      ]
    },
    {
      "matrix": [
        0.8614457831325295,
        0,
        0,
        0,
        0,
        0.8614457831325295,
        0,
        0,
        0,
        0,
        0.86144578313253,
        0,
        -1.4557973673225304,
        -0.12667343251145272,
        1.1748807106806238,
        1.0000000000000002
      ],
      "name": "Rectangle 4",
      "mesh": 0
    },
    {
      "matrix": [
        0.8614457831325295,
        0,
        0,
        0,
        0,
        0.8614457831325295,
        0,
        0,
        0,
        0,
        0.86144578313253,
        0,
        -1.4557973673225304,
        11.472028112502134,
        1.1748807106806238,
        1.0000000000000002
      ],
      "name": "Rectangle 3",
      "mesh": 1
    },
    {
      "matrix": [
        0.8614457831325295,
        0,
        0,
        0,
        0,
        0.8614457831325295,
        0,
        0,
        0,
        0,
        0.86144578313253,
        0,
        -1.0055188196692786,
        -6.227210124355936,
        -2.441822545669865,
        1.0000000000000002
      ],
      "name": "Rectangle 2",
      "mesh": 2
    },
    {
      "matrix": [
        0.8614457831325295,
        0,
        0,
        0,
        0,
        0.8614457831325295,
        0,
        0,
        0,
        0,
        0.86144578313253,
        0,
        -3.552713678800502e-15,
        -22.93907638917484,
        9.25386490735663,
        1.0000000000000002
      ],
      "name": "Cube",
      "mesh": 3
    },
    {
      "matrix": [
        1,
        0,
        0,
        0,
        0,
        1,
        0,
        0,
        0,
        0,
        1,
        0,
        28,
        30,
        18,
        1
      ],
      "name": "Envelope",
      "children": [
        1,
        2,
        3,
        4
      ]
    },
    {
      "matrix": [
        0.7537872944794768,
        4.867785853568396e-8,
        0.6571184936381779,
        0,
        0.11356900427042753,
        0.9849518693868994,
        -0.1302762306035756,
        0,
        -0.6472300950591946,
        0.1728288604118248,
        0.742444199289358,
        0,
        -709.2994310119255,
        258.77347943294023,
        1014.4860134935425,
        1
      ],
      "name": "Camera",
      "camera": 0
    },
    {
      "matrix": [
        1,
        0,
        0,
        0,
        0,
        1,
        0,
        0,
        0,
        0,
        1,
        0,
        32.1956450086509,
        102.73666711197359,
        0,
        1
      ],
      "name": "Point Light",
      "extensions": {
        "KHR_lights_punctual": {
          "light": 0
        }
      }
    },
    {
      "matrix": [
        0.9224492063111328,
        0.22724015638136993,
        -0.31216882147923064,
        0,
        -0.23919345577404477,
        0.9709719309613796,
        0,
        0,
        0.3031071633776268,
        0.07466873919452803,
        0.9500266453612068,
        0,
        0,
        0,
        0,
        1
      ],
      "name": "Directional Light",
      "extensions": {
        "KHR_lights_punctual": {
          "light": 1
        }
      }
    },
    {
      "matrix": [
        0.8315703089501729,
        1.6653345369377348e-16,
        0.555419500263102,
        0,
        0.33864469450339946,
        0.7926247530345347,
        -0.5070165399290658,
        0,
        -0.440239244226606,
        0.6097097677394898,
        0.6591232107624825,
        0,
        -445.38337394378544,
        642.6857896480653,
        989.5403797723848,
        1
      ],
      "camera": 1
    },
    {
      "matrix": [
        1,
        0,
        0,
        0,
        0,
        1,
        0,
        0,
        0,
        0,
        1,
        0,
        0,
        1,
        0,
        1
      ],
      "name": "Default Ambient Light"
    }
  ],
  "bufferViews": [
    {
      "buffer": 0,
      "byteOffset": 0,
      "byteLength": 11808,
      "target": 34962,
      "byteStride": 12
    },
    {
      "buffer": 0,
      "byteOffset": 11808,
      "byteLength": 11808,
      "target": 34962,
      "byteStride": 12
    },
    {
      "buffer": 0,
      "byteOffset": 23616,
      "byteLength": 7872,
      "target": 34962,
      "byteStride": 8
    },
    {
      "buffer": 0,
      "byteOffset": 31488,
      "byteLength": 11760,
      "target": 34963
    },
    {
      "buffer": 0,
      "byteOffset": 43248,
      "byteLength": 11808,
      "target": 34962,
      "byteStride": 12
    },
    {
      "buffer": 0,
      "byteOffset": 55056,
      "byteLength": 11808,
      "target": 34962,
      "byteStride": 12
    },
    {
      "buffer": 0,
      "byteOffset": 66864,
      "byteLength": 7872,
      "target": 34962,
      "byteStride": 8
    },
    {
      "buffer": 0,
      "byteOffset": 74736,
      "byteLength": 11760,
      "target": 34963
    },
    {
      "buffer": 0,
      "byteOffset": 86496,
      "byteLength": 7872,
      "target": 34962,
      "byteStride": 12
    },
    {
      "buffer": 0,
      "byteOffset": 94368,
      "byteLength": 7872,
      "target": 34962,
      "byteStride": 12
    },
    {
      "buffer": 0,
      "byteOffset": 102240,
      "byteLength": 5248,
      "target": 34962,
      "byteStride": 8
    },
    {
      "buffer": 0,
      "byteOffset": 107488,
      "byteLength": 7824,
      "target": 34963
    },
    {
      "buffer": 0,
      "byteOffset": 115312,
      "byteLength": 37248,
      "target": 34962,
      "byteStride": 12
    },
    {
      "buffer": 0,
      "byteOffset": 152560,
      "byteLength": 37248,
      "target": 34962,
      "byteStride": 12
    },
    {
      "buffer": 0,
      "byteOffset": 189808,
      "byteLength": 18624,
      "target": 34963
    }
  ],
  "buffers": [
    {
      "byteLength": 208432,
      "uri": "data:application/octet-stream;base64,"
    }
  ],
  "accessors": [
    {
      "bufferView": 0,
      "componentType": 5126,
      "count": 984,
      "max": [
        32.5,
        3.5,
        2
      ],
      "min": [
        -32.5,
        -3.5,
        0
      ],
      "type": "VEC3"
    },
    {
      "bufferView": 1,
      "componentType": 5126,
      "count": 984,
      "max": [
        1,
        1,
        1
      ],
      "min": [
        -1,
        -1,
        -1
      ],
      "type": "VEC3"
    },
    {
      "bufferView": 2,
      "componentType": 5126,
      "count": 984,
      "max": [
        1,
        1
      ],
      "min": [
        0,
        0
      ],
      "type": "VEC2"
    },
    {
      "bufferView": 3,
      "componentType": 5125,
      "count": 2940,
      "max": [
        983
      ],
      "min": [
        0
      ],
      "type": "SCALAR"
    },
    {
      "bufferView": 4,
      "componentType": 5126,
      "count": 984,
      "max": [
        32.5,
        3.5,
        2
      ],
      "min": [
        -32.5,
        -3.5,
        0
      ],
      "type": "VEC3"
    },
    {
      "bufferView": 5,
      "componentType": 5126,
      "count": 984,
      "max": [
        1,
        1,
        1
      ],
      "min": [
        -1,
        -1,
        -1
      ],
      "type": "VEC3"
    },
    {
      "bufferView": 6,
      "componentType": 5126,
      "count": 984,
      "max": [
        1,
        1
      ],
      "min": [
        0,
        0
      ],
      "type": "VEC2"
    },
    {
      "bufferView": 7,
      "componentType": 5125,
      "count": 2940,
      "max": [
        983
      ],
      "min": [
        0
      ],
      "type": "SCALAR"
    },
    {
      "bufferView": 8,
      "componentType": 5126,
      "count": 656,
      "max": [
        49.5,
        39,
        5
      ],
      "min": [
        -49.5,
        -39,
        0
      ],
      "type": "VEC3"
    },
    {
      "bufferView": 9,
      "componentType": 5126,
      "count": 656,
      "max": [
        1,
        1,
        1
      ],
      "min": [
        -1,
        -1,
        -1
      ],
      "type": "VEC3"
    },
    {
      "bufferView": 10,
      "componentType": 5126,
      "count": 656,
      "max": [
        1,
        1
      ],
      "min": [
        0,
        0
      ],
      "type": "VEC2"
    },
    {
      "bufferView": 11,
      "componentType": 5125,
      "count": 1956,
      "max": [
        655
      ],
      "min": [
        0
      ],
      "type": "SCALAR"
    },
    {
      "bufferView": 12,
      "componentType": 5126,
      "count": 3104,
      "max": [
        73.8699951171875,
        88.09021759033203,
        -2.691959857940674
      ],
      "min": [
        -73.8699951171875,
        -36.93499755859375,
        -18.792537689208984
      ],
      "type": "VEC3"
    },
    {
      "bufferView": 13,
      "componentType": 5126,
      "count": 3104,
      "max": [
        1,
        1,
        1
      ],
      "min": [
        -1,
        -1,
        -1
      ],
      "type": "VEC3"
    },
    {
      "bufferView": 14,
      "componentType": 5125,
      "count": 4656,
      "max": [
        3103
      ],
      "min": [
        0
      ],
      "type": "SCALAR"
    }
  ],
  "meshes": [
    {
      "primitives": [
        {
          "mode": 4,
          "attributes": {
            "POSITION": 0,
            "NORMAL": 1,
            "TEXCOORD_0": 2
          },
          "extras": {
            "shape": {
              "points": [
                -32.5,
                3.5,
                -32.5,
                3.5,
                -32.5,
                3.5,
                2,
                32.5,
                3.5,
                32.5,
                3.5,
                32.5,
                3.5,
                2,
                32.5,
                -3.5,
                32.5,
                -3.5,
                32.5,
                -3.5,
                2,
                -32.5,
                -3.5,
                -32.5,
                -3.5,
                -32.5,
                -3.5,
                2
              ],
              "shapeHoles": [],
              "isClosed": true,
              "roundness": 2
            },
            "parameters": {
              "width": 65,
              "depth": 2,
              "cornerRadius": [
                2,
                2,
                2,
                2
              ],
              "cornerType": 1,
              "extrudeBevelSize": 1,
              "extrudeBevelSegments": 1,
              "extrudeDepth": 0,
              "height": 7,
              "surfaceMaxCount": 100,
              "type": "RectangleGeometry"
            },
            "ui": {
              "enabledIndieCorners": false
            },
            "type": "RectangleGeometry"
          },
          "indices": 3
        }
      ]
    },
    {
      "primitives": [
        {
          "mode": 4,
          "attributes": {
            "POSITION": 4,
            "NORMAL": 5,
            "TEXCOORD_0": 6
          },
          "extras": {
            "shape": {
              "points": [
                -32.5,
                3.5,
                -32.5,
                3.5,
                -32.5,
                3.5,
                2,
                32.5,
                3.5,
                32.5,
                3.5,
                32.5,
                3.5,
                2,
                32.5,
                -3.5,
                32.5,
                -3.5,
                32.5,
                -3.5,
                2,
                -32.5,
                -3.5,
                -32.5,
                -3.5,
                -32.5,
                -3.5,
                2
              ],
              "shapeHoles": [],
              "isClosed": true,
              "roundness": 2
            },
            "parameters": {
              "width": 65,
              "depth": 2,
              "cornerRadius": [
                2,
                2,
                2,
                2
              ],
              "cornerType": 1,
              "extrudeBevelSize": 1,
              "extrudeBevelSegments": 1,
              "extrudeDepth": 0,
              "height": 7,
              "surfaceMaxCount": 100,
              "type": "RectangleGeometry"
            },
            "ui": {
              "enabledIndieCorners": false
            },
            "type": "RectangleGeometry"
          },
          "indices": 7
        }
      ]
    },
    {
      "primitives": [
        {
          "mode": 4,
          "attributes": {
            "POSITION": 8,
            "NORMAL": 9,
            "TEXCOORD_0": 10
          },
          "extras": {
            "shape": {
              "points": [
                -49.5,
                39,
                -49.5,
                39,
                -49.5,
                39,
                11,
                49.5,
                39,
                49.5,
                39,
                49.5,
                39,
                11,
                49.5,
                -39,
                49.5,
                -39,
                49.5,
                -39,
                11,
                -49.5,
                -39,
                -49.5,
                -39,
                -49.5,
                -39,
                11
              ],
              "shapeHoles": [],
              "isClosed": true,
              "roundness": 11
            },
            "parameters": {
              "width": 99,
              "depth": 5,
              "cornerRadius": [
                11,
                11,
                11,
                11
              ],
              "cornerType": 1,
              "extrudeBevelSize": 0,
              "extrudeBevelSegments": 1,
              "extrudeDepth": 0,
              "height": 78,
              "surfaceMaxCount": 100,
              "type": "RectangleGeometry"
            },
            "ui": {
              "enabledIndieCorners": false
            },
            "type": "RectangleGeometry"
          },
          "indices": 11
        }
      ]
    },
    {
      "primitives": [
        {
          "mode": 4,
          "attributes": {
            "POSITION": 12,
            "NORMAL": 13
          },
          "extras": {
            "type": "SubdivGeometry",
            "parameters": {
              "width": 147.739990234375,
              "height": 127.12715148925781,
              "depth": 16.10057783126831
            }
          },
          "indices": 14
        }
      ]
    }
  ],
  "cameras": [
    {
      "type": "orthographic",
      "orthographic": {
        "xmag": 5.690966011297923,
        "ymag": 2.6205107035917963,
        "zfar": 100000,
        "znear": 0
      },
      "name": "Camera"
    },
    {
      "type": "orthographic",
      "orthographic": {
        "xmag": 6.1640749999999995,
        "ymag": 3.4656,
        "zfar": 100000,
        "znear": 0
      }
    }
  ],
  "extensions": {
    "KHR_lights_punctual": {
      "lights": [
        {
          "name": "Point Light",
          "color": [
            1,
            1,
            1
          ],
          "intensity": 1,
          "type": "point",
          "range": 2000
        },
        {
          "name": "Directional Light",
          "color": [
            1,
            1,
            1
          ],
          "intensity": 0.7,
          "type": "directional"
        }
      ]
    }
  },
  "extensionsUsed": [
    "KHR_lights_punctual"
  ]
}